<svg width="251" height="62" viewBox="0 0 251 62" fill="none" xmlns="http://www.w3.org/2000/svg">
<path d="M67.912 19.096C67.08 19.096 66.28 18.9627 65.512 18.696C64.7547 18.4187 64.168 18.0667 63.752 17.64L64.216 16.728C64.6107 17.112 65.1387 17.4373 65.8 17.704C66.472 17.96 67.176 18.088 67.912 18.088C68.616 18.088 69.1867 18.0027 69.624 17.832C70.072 17.6507 70.3973 17.4107 70.6 17.112C70.8133 16.8133 70.92 16.4827 70.92 16.12C70.92 15.6827 70.792 15.3307 70.536 15.064C70.2907 14.7973 69.9653 14.5893 69.56 14.44C69.1547 14.28 68.7067 14.1413 68.216 14.024C67.7253 13.9067 67.2347 13.784 66.744 13.656C66.2533 13.5173 65.8 13.336 65.384 13.112C64.9787 12.888 64.648 12.5947 64.392 12.232C64.1467 11.8587 64.024 11.3733 64.024 10.776C64.024 10.2213 64.168 9.71467 64.456 9.256C64.7547 8.78667 65.208 8.41333 65.816 8.136C66.424 7.848 67.2027 7.704 68.152 7.704C68.7813 7.704 69.4053 7.79467 70.024 7.976C70.6427 8.14667 71.176 8.38667 71.624 8.696L71.224 9.64C70.744 9.32 70.232 9.08533 69.688 8.936C69.1547 8.78667 68.6373 8.712 68.136 8.712C67.464 8.712 66.9093 8.80267 66.472 8.984C66.0347 9.16533 65.7093 9.41067 65.496 9.72C65.2933 10.0187 65.192 10.36 65.192 10.744C65.192 11.1813 65.3147 11.5333 65.56 11.8C65.816 12.0667 66.1467 12.2747 66.552 12.424C66.968 12.5733 67.4213 12.7067 67.912 12.824C68.4027 12.9413 68.888 13.0693 69.368 13.208C69.8587 13.3467 70.3067 13.528 70.712 13.752C71.128 13.9653 71.4587 14.2533 71.704 14.616C71.96 14.9787 72.088 15.4533 72.088 16.04C72.088 16.584 71.9387 17.0907 71.64 17.56C71.3413 18.0187 70.8827 18.392 70.264 18.68C69.656 18.9573 68.872 19.096 67.912 19.096ZM76.8438 12.808H82.7638V13.816H76.8438V12.808ZM76.9718 17.976H83.7078V19H75.7878V7.8H83.4678V8.824H76.9718V17.976ZM87.6109 19V7.8H91.8029C92.7522 7.8 93.5682 7.95467 94.2509 8.264C94.9335 8.56267 95.4562 9 95.8189 9.576C96.1922 10.1413 96.3789 10.8293 96.3789 11.64C96.3789 12.4293 96.1922 13.112 95.8189 13.688C95.4562 14.2533 94.9335 14.6907 94.2509 15C93.5682 15.2987 92.7522 15.448 91.8029 15.448H88.2669L88.7949 14.904V19H87.6109ZM95.2589 19L92.3789 14.936H93.6589L96.5549 19H95.2589ZM88.7949 15L88.2669 14.44H91.7709C92.8909 14.44 93.7389 14.1947 94.3149 13.704C94.9015 13.2133 95.1949 12.5253 95.1949 11.64C95.1949 10.744 94.9015 10.0507 94.3149 9.56C93.7389 9.06933 92.8909 8.824 91.7709 8.824H88.2669L88.7949 8.264V15ZM103.477 19L98.5174 7.8H99.7974L104.437 18.344H103.733L108.405 7.8H109.605L104.645 19H103.477ZM112.351 19V7.8H113.535V19H112.351ZM121.387 19.096C120.555 19.096 119.755 18.9627 118.987 18.696C118.23 18.4187 117.643 18.0667 117.227 17.64L117.691 16.728C118.086 17.112 118.614 17.4373 119.275 17.704C119.947 17.96 120.651 18.088 121.387 18.088C122.091 18.088 122.662 18.0027 123.099 17.832C123.547 17.6507 123.872 17.4107 124.075 17.112C124.288 16.8133 124.395 16.4827 124.395 16.12C124.395 15.6827 124.267 15.3307 124.011 15.064C123.766 14.7973 123.44 14.5893 123.035 14.44C122.63 14.28 122.182 14.1413 121.691 14.024C121.2 13.9067 120.71 13.784 120.219 13.656C119.728 13.5173 119.275 13.336 118.859 13.112C118.454 12.888 118.123 12.5947 117.867 12.232C117.622 11.8587 117.499 11.3733 117.499 10.776C117.499 10.2213 117.643 9.71467 117.931 9.256C118.23 8.78667 118.683 8.41333 119.291 8.136C119.899 7.848 120.678 7.704 121.627 7.704C122.256 7.704 122.88 7.79467 123.499 7.976C124.118 8.14667 124.651 8.38667 125.099 8.696L124.699 9.64C124.219 9.32 123.707 9.08533 123.163 8.936C122.63 8.78667 122.112 8.712 121.611 8.712C120.939 8.712 120.384 8.80267 119.947 8.984C119.51 9.16533 119.184 9.41067 118.971 9.72C118.768 10.0187 118.667 10.36 118.667 10.744C118.667 11.1813 118.79 11.5333 119.035 11.8C119.291 12.0667 119.622 12.2747 120.027 12.424C120.443 12.5733 120.896 12.7067 121.387 12.824C121.878 12.9413 122.363 13.0693 122.843 13.208C123.334 13.3467 123.782 13.528 124.187 13.752C124.603 13.9653 124.934 14.2533 125.179 14.616C125.435 14.9787 125.563 15.4533 125.563 16.04C125.563 16.584 125.414 17.0907 125.115 17.56C124.816 18.0187 124.358 18.392 123.739 18.68C123.131 18.9573 122.347 19.096 121.387 19.096ZM134.57 19V7.8H135.754V19H134.57ZM145.826 19V7.8H150.018C150.967 7.8 151.783 7.95467 152.466 8.264C153.149 8.56267 153.671 9 154.034 9.576C154.407 10.1413 154.594 10.8293 154.594 11.64C154.594 12.4293 154.407 13.112 154.034 13.688C153.671 14.2533 153.149 14.6907 152.466 15C151.783 15.3093 150.967 15.464 150.018 15.464H146.482L147.01 14.904V19H145.826ZM147.01 15L146.482 14.424H149.986C151.106 14.424 151.954 14.184 152.53 13.704C153.117 13.2133 153.41 12.5253 153.41 11.64C153.41 10.744 153.117 10.0507 152.53 9.56C151.954 9.06933 151.106 8.824 149.986 8.824H146.482L147.01 8.264V15ZM163.326 19.096C162.484 19.096 161.7 18.9573 160.974 18.68C160.26 18.392 159.636 17.992 159.102 17.48C158.58 16.9573 158.169 16.3547 157.87 15.672C157.582 14.9787 157.438 14.2213 157.438 13.4C157.438 12.5787 157.582 11.8267 157.87 11.144C158.169 10.4507 158.58 9.848 159.102 9.336C159.636 8.81333 160.26 8.41333 160.974 8.136C161.689 7.848 162.473 7.704 163.326 7.704C164.169 7.704 164.948 7.848 165.662 8.136C166.377 8.41333 166.996 8.808 167.518 9.32C168.052 9.832 168.462 10.4347 168.75 11.128C169.049 11.8213 169.198 12.5787 169.198 13.4C169.198 14.2213 169.049 14.9787 168.75 15.672C168.462 16.3653 168.052 16.968 167.518 17.48C166.996 17.992 166.377 18.392 165.662 18.68C164.948 18.9573 164.169 19.096 163.326 19.096ZM163.326 18.04C163.998 18.04 164.617 17.928 165.182 17.704C165.758 17.4693 166.254 17.144 166.67 16.728C167.097 16.3013 167.428 15.8107 167.662 15.256C167.897 14.6907 168.014 14.072 168.014 13.4C168.014 12.728 167.897 12.1147 167.662 11.56C167.428 10.9947 167.097 10.504 166.67 10.088C166.254 9.66133 165.758 9.336 165.182 9.112C164.617 8.87733 163.998 8.76 163.326 8.76C162.654 8.76 162.03 8.87733 161.454 9.112C160.878 9.336 160.377 9.66133 159.95 10.088C159.534 10.504 159.204 10.9947 158.958 11.56C158.724 12.1147 158.606 12.728 158.606 13.4C158.606 14.0613 158.724 14.6747 158.958 15.24C159.204 15.8053 159.534 16.3013 159.95 16.728C160.377 17.144 160.878 17.4693 161.454 17.704C162.03 17.928 162.654 18.04 163.326 18.04ZM172.972 19V7.8H177.164C178.113 7.8 178.929 7.95467 179.612 8.264C180.295 8.56267 180.817 9 181.18 9.576C181.553 10.1413 181.74 10.8293 181.74 11.64C181.74 12.4293 181.553 13.112 181.18 13.688C180.817 14.2533 180.295 14.6907 179.612 15C178.929 15.3093 178.113 15.464 177.164 15.464H173.628L174.156 14.904V19H172.972ZM174.156 15L173.628 14.424H177.132C178.252 14.424 179.1 14.184 179.676 13.704C180.263 13.2133 180.556 12.5253 180.556 11.64C180.556 10.744 180.263 10.0507 179.676 9.56C179.1 9.06933 178.252 8.824 177.132 8.824H173.628L174.156 8.264V15ZM185.42 19V7.8H189.612C190.562 7.8 191.378 7.95467 192.06 8.264C192.743 8.56267 193.266 9 193.628 9.576C194.002 10.1413 194.188 10.8293 194.188 11.64C194.188 12.4293 194.002 13.112 193.628 13.688C193.266 14.2533 192.743 14.6907 192.06 15C191.378 15.2987 190.562 15.448 189.612 15.448H186.076L186.604 14.904V19H185.42ZM193.068 19L190.188 14.936H191.468L194.364 19H193.068ZM186.604 15L186.076 14.44H189.58C190.7 14.44 191.548 14.1947 192.124 13.704C192.711 13.2133 193.004 12.5253 193.004 11.64C193.004 10.744 192.711 10.0507 192.124 9.56C191.548 9.06933 190.7 8.824 189.58 8.824H186.076L186.604 8.264V15ZM196.311 19L201.431 7.8H202.599L207.719 19H206.471L201.767 8.488H202.247L197.543 19H196.311ZM198.327 16.008L198.679 15.048H205.191L205.543 16.008H198.327ZM213.297 19L208.337 7.8H209.617L214.257 18.344H213.553L218.225 7.8H219.425L214.465 19H213.297ZM223.195 16.216L223.147 14.776L229.931 7.8H231.291L226.347 12.984L225.675 13.704L223.195 16.216ZM222.171 19V7.8H223.355V19H222.171ZM230.219 19L225.387 13.432L226.187 12.568L231.627 19H230.219ZM232.436 19L237.556 7.8H238.724L243.844 19H242.596L237.892 8.488H238.372L233.668 19H232.436ZM234.452 16.008L234.804 15.048H241.316L241.668 16.008H234.452Z" fill="black"/>
<path d="M65.988 55V29.8H76.896C79.152 29.8 81.096 30.172 82.728 30.916C84.36 31.636 85.62 32.68 86.508 34.048C87.396 35.416 87.84 37.048 87.84 38.944C87.84 40.816 87.396 42.436 86.508 43.804C85.62 45.148 84.36 46.18 82.728 46.9C81.096 47.62 79.152 47.98 76.896 47.98H69.228L71.82 45.424V55H65.988ZM82.008 55L75.708 45.856H81.936L88.308 55H82.008ZM71.82 46.072L69.228 43.336H76.572C78.372 43.336 79.716 42.952 80.604 42.184C81.492 41.392 81.936 40.312 81.936 38.944C81.936 37.552 81.492 36.472 80.604 35.704C79.716 34.936 78.372 34.552 76.572 34.552H69.228L71.82 31.78V46.072ZM107.221 55.432C105.229 55.432 103.381 55.108 101.677 54.46C99.9967 53.812 98.5327 52.9 97.2847 51.724C96.0607 50.548 95.1007 49.168 94.4047 47.584C93.7327 46 93.3967 44.272 93.3967 42.4C93.3967 40.528 93.7327 38.8 94.4047 37.216C95.1007 35.632 96.0727 34.252 97.3207 33.076C98.5687 31.9 100.033 30.988 101.713 30.34C103.393 29.692 105.217 29.368 107.185 29.368C109.177 29.368 111.001 29.692 112.657 30.34C114.337 30.988 115.789 31.9 117.013 33.076C118.261 34.252 119.233 35.632 119.929 37.216C120.625 38.776 120.973 40.504 120.973 42.4C120.973 44.272 120.625 46.012 119.929 47.62C119.233 49.204 118.261 50.584 117.013 51.76C115.789 52.912 114.337 53.812 112.657 54.46C111.001 55.108 109.189 55.432 107.221 55.432ZM107.185 50.464C108.313 50.464 109.345 50.272 110.281 49.888C111.241 49.504 112.081 48.952 112.801 48.232C113.521 47.512 114.073 46.66 114.457 45.676C114.865 44.692 115.069 43.6 115.069 42.4C115.069 41.2 114.865 40.108 114.457 39.124C114.073 38.14 113.521 37.288 112.801 36.568C112.105 35.848 111.277 35.296 110.317 34.912C109.357 34.528 108.313 34.336 107.185 34.336C106.057 34.336 105.013 34.528 104.053 34.912C103.117 35.296 102.289 35.848 101.569 36.568C100.849 37.288 100.285 38.14 99.8767 39.124C99.4927 40.108 99.3007 41.2 99.3007 42.4C99.3007 43.576 99.4927 44.668 99.8767 45.676C100.285 46.66 100.837 47.512 101.533 48.232C102.253 48.952 103.093 49.504 104.053 49.888C105.013 50.272 106.057 50.464 107.185 50.464ZM127.876 55V29.8H133.708V50.248H146.344V55H127.876ZM157.486 39.952H169.618V44.488H157.486V39.952ZM157.918 50.32H171.634V55H152.122V29.8H171.166V34.48H157.918V50.32ZM184.015 55V34.552H175.951V29.8H197.911V34.552H189.847V55H184.015ZM203.568 55V29.8H208.392L223.26 47.944H220.92V29.8H226.68V55H221.892L206.988 36.856H209.328V55H203.568ZM235.163 55V29.8H240.995V55H235.163Z" fill="black"/>
<path d="M13.8221 7H55V19H0L13.8221 7Z" fill="#4A494A"/>
<path d="M13.8221 25H55V37H0L13.8221 25Z" fill="#4A494A"/>
<path d="M13.8221 43H55V55H0L13.8221 43Z" fill="#BB8C30"/>
</svg>
