<svg width="251" height="62" viewBox="0 0 251 62" fill="none" xmlns="http://www.w3.org/2000/svg">
<path d="M67.298 19.084C66.57 19.084 65.87 18.9673 65.198 18.734C64.5353 18.4913 64.022 18.1833 63.658 17.81L64.064 17.012C64.4093 17.348 64.8713 17.6327 65.45 17.866C66.038 18.09 66.654 18.202 67.298 18.202C67.914 18.202 68.4133 18.1273 68.796 17.978C69.188 17.8193 69.4727 17.6093 69.65 17.348C69.8367 17.0867 69.93 16.7973 69.93 16.48C69.93 16.0973 69.818 15.7893 69.594 15.556C69.3793 15.3227 69.0947 15.1407 68.74 15.01C68.3853 14.87 67.9933 14.7487 67.564 14.646C67.1347 14.5433 66.7053 14.436 66.276 14.324C65.8467 14.2027 65.45 14.044 65.086 13.848C64.7313 13.652 64.442 13.3953 64.218 13.078C64.0033 12.7513 63.896 12.3267 63.896 11.804C63.896 11.3187 64.022 10.8753 64.274 10.474C64.5353 10.0633 64.932 9.73667 65.464 9.494C65.996 9.242 66.6773 9.116 67.508 9.116C68.0587 9.116 68.6047 9.19533 69.146 9.354C69.6873 9.50333 70.154 9.71333 70.546 9.984L70.196 10.81C69.776 10.53 69.328 10.3247 68.852 10.194C68.3853 10.0633 67.9327 9.998 67.494 9.998C66.906 9.998 66.4207 10.0773 66.038 10.236C65.6553 10.3947 65.3707 10.6093 65.184 10.88C65.0067 11.1413 64.918 11.44 64.918 11.776C64.918 12.1587 65.0253 12.4667 65.24 12.7C65.464 12.9333 65.7533 13.1153 66.108 13.246C66.472 13.3767 66.8687 13.4933 67.298 13.596C67.7273 13.6987 68.152 13.8107 68.572 13.932C69.0013 14.0533 69.3933 14.212 69.748 14.408C70.112 14.5947 70.4013 14.8467 70.616 15.164C70.84 15.4813 70.952 15.8967 70.952 16.41C70.952 16.886 70.8213 17.3293 70.56 17.74C70.2987 18.1413 69.8973 18.468 69.356 18.72C68.824 18.9627 68.138 19.084 67.298 19.084ZM75.1133 13.582H80.2933V14.464H75.1133V13.582ZM75.2253 18.104H81.1193V19H74.1893V9.2H80.9093V10.096H75.2253V18.104ZM84.5345 19V9.2H88.2025C89.0332 9.2 89.7472 9.33533 90.3445 9.606C90.9418 9.86733 91.3992 10.25 91.7165 10.754C92.0432 11.2487 92.2065 11.8507 92.2065 12.56C92.2065 13.2507 92.0432 13.848 91.7165 14.352C91.3992 14.8467 90.9418 15.2293 90.3445 15.5C89.7472 15.7613 89.0332 15.892 88.2025 15.892H85.1085L85.5705 15.416V19H84.5345ZM91.2265 19L88.7065 15.444H89.8265L92.3605 19H91.2265ZM85.5705 15.5L85.1085 15.01H88.1745C89.1545 15.01 89.8965 14.7953 90.4005 14.366C90.9138 13.9367 91.1705 13.3347 91.1705 12.56C91.1705 11.776 90.9138 11.1693 90.4005 10.74C89.8965 10.3107 89.1545 10.096 88.1745 10.096H85.1085L85.5705 9.606V15.5ZM98.4177 19L94.0777 9.2H95.1977L99.2577 18.426H98.6417L102.73 9.2H103.78L99.4397 19H98.4177ZM106.182 19V9.2H107.218V19H106.182ZM114.089 19.084C113.361 19.084 112.661 18.9673 111.989 18.734C111.326 18.4913 110.813 18.1833 110.449 17.81L110.855 17.012C111.2 17.348 111.662 17.6327 112.241 17.866C112.829 18.09 113.445 18.202 114.089 18.202C114.705 18.202 115.204 18.1273 115.587 17.978C115.979 17.8193 116.263 17.6093 116.441 17.348C116.627 17.0867 116.721 16.7973 116.721 16.48C116.721 16.0973 116.609 15.7893 116.385 15.556C116.17 15.3227 115.885 15.1407 115.531 15.01C115.176 14.87 114.784 14.7487 114.355 14.646C113.925 14.5433 113.496 14.436 113.067 14.324C112.637 14.2027 112.241 14.044 111.877 13.848C111.522 13.652 111.233 13.3953 111.009 13.078C110.794 12.7513 110.687 12.3267 110.687 11.804C110.687 11.3187 110.813 10.8753 111.065 10.474C111.326 10.0633 111.723 9.73667 112.255 9.494C112.787 9.242 113.468 9.116 114.299 9.116C114.849 9.116 115.395 9.19533 115.937 9.354C116.478 9.50333 116.945 9.71333 117.337 9.984L116.987 10.81C116.567 10.53 116.119 10.3247 115.643 10.194C115.176 10.0633 114.723 9.998 114.285 9.998C113.697 9.998 113.211 10.0773 112.829 10.236C112.446 10.3947 112.161 10.6093 111.975 10.88C111.797 11.1413 111.709 11.44 111.709 11.776C111.709 12.1587 111.816 12.4667 112.031 12.7C112.255 12.9333 112.544 13.1153 112.899 13.246C113.263 13.3767 113.659 13.4933 114.089 13.596C114.518 13.6987 114.943 13.8107 115.363 13.932C115.792 14.0533 116.184 14.212 116.539 14.408C116.903 14.5947 117.192 14.8467 117.407 15.164C117.631 15.4813 117.743 15.8967 117.743 16.41C117.743 16.886 117.612 17.3293 117.351 17.74C117.089 18.1413 116.688 18.468 116.147 18.72C115.615 18.9627 114.929 19.084 114.089 19.084ZM125.624 19V9.2H126.66V19H125.624ZM135.473 19V9.2H139.141C139.971 9.2 140.685 9.33533 141.283 9.606C141.88 9.86733 142.337 10.25 142.655 10.754C142.981 11.2487 143.145 11.8507 143.145 12.56C143.145 13.2507 142.981 13.848 142.655 14.352C142.337 14.8467 141.88 15.2293 141.283 15.5C140.685 15.7707 139.971 15.906 139.141 15.906H136.047L136.509 15.416V19H135.473ZM136.509 15.5L136.047 14.996H139.113C140.093 14.996 140.835 14.786 141.339 14.366C141.852 13.9367 142.109 13.3347 142.109 12.56C142.109 11.776 141.852 11.1693 141.339 10.74C140.835 10.3107 140.093 10.096 139.113 10.096H136.047L136.509 9.606V15.5ZM150.785 19.084C150.048 19.084 149.362 18.9627 148.727 18.72C148.102 18.468 147.556 18.118 147.089 17.67C146.632 17.2127 146.273 16.6853 146.011 16.088C145.759 15.4813 145.633 14.8187 145.633 14.1C145.633 13.3813 145.759 12.7233 146.011 12.126C146.273 11.5193 146.632 10.992 147.089 10.544C147.556 10.0867 148.102 9.73667 148.727 9.494C149.353 9.242 150.039 9.116 150.785 9.116C151.523 9.116 152.204 9.242 152.829 9.494C153.455 9.73667 153.996 10.082 154.453 10.53C154.92 10.978 155.279 11.5053 155.531 12.112C155.793 12.7187 155.923 13.3813 155.923 14.1C155.923 14.8187 155.793 15.4813 155.531 16.088C155.279 16.6947 154.92 17.222 154.453 17.67C153.996 18.118 153.455 18.468 152.829 18.72C152.204 18.9627 151.523 19.084 150.785 19.084ZM150.785 18.16C151.373 18.16 151.915 18.062 152.409 17.866C152.913 17.6607 153.347 17.376 153.711 17.012C154.085 16.6387 154.374 16.2093 154.579 15.724C154.785 15.2293 154.887 14.688 154.887 14.1C154.887 13.512 154.785 12.9753 154.579 12.49C154.374 11.9953 154.085 11.566 153.711 11.202C153.347 10.8287 152.913 10.544 152.409 10.348C151.915 10.1427 151.373 10.04 150.785 10.04C150.197 10.04 149.651 10.1427 149.147 10.348C148.643 10.544 148.205 10.8287 147.831 11.202C147.467 11.566 147.178 11.9953 146.963 12.49C146.758 12.9753 146.655 13.512 146.655 14.1C146.655 14.6787 146.758 15.2153 146.963 15.71C147.178 16.2047 147.467 16.6387 147.831 17.012C148.205 17.376 148.643 17.6607 149.147 17.866C149.651 18.062 150.197 18.16 150.785 18.16ZM159.226 19V9.2H162.894C163.724 9.2 164.438 9.33533 165.036 9.606C165.633 9.86733 166.09 10.25 166.408 10.754C166.734 11.2487 166.898 11.8507 166.898 12.56C166.898 13.2507 166.734 13.848 166.408 14.352C166.09 14.8467 165.633 15.2293 165.036 15.5C164.438 15.7707 163.724 15.906 162.894 15.906H159.8L160.262 15.416V19H159.226ZM160.262 15.5L159.8 14.996H162.866C163.846 14.996 164.588 14.786 165.092 14.366C165.605 13.9367 165.862 13.3347 165.862 12.56C165.862 11.776 165.605 11.1693 165.092 10.74C164.588 10.3107 163.846 10.096 162.866 10.096H159.8L160.262 9.606V15.5ZM170.118 19V9.2H173.786C174.616 9.2 175.33 9.33533 175.928 9.606C176.525 9.86733 176.982 10.25 177.3 10.754C177.626 11.2487 177.79 11.8507 177.79 12.56C177.79 13.2507 177.626 13.848 177.3 14.352C176.982 14.8467 176.525 15.2293 175.928 15.5C175.33 15.7613 174.616 15.892 173.786 15.892H170.692L171.154 15.416V19H170.118ZM176.81 19L174.29 15.444H175.41L177.944 19H176.81ZM171.154 15.5L170.692 15.01H173.758C174.738 15.01 175.48 14.7953 175.984 14.366C176.497 13.9367 176.754 13.3347 176.754 12.56C176.754 11.776 176.497 11.1693 175.984 10.74C175.48 10.3107 174.738 10.096 173.758 10.096H170.692L171.154 9.606V15.5ZM179.647 19L184.127 9.2H185.149L189.629 19H188.537L184.421 9.802H184.841L180.725 19H179.647ZM181.411 16.382L181.719 15.542H187.417L187.725 16.382H181.411ZM194.51 19L190.17 9.2H191.29L195.35 18.426H194.734L198.822 9.2H199.872L195.532 19H194.51ZM203.171 16.564L203.129 15.304L209.065 9.2H210.255L205.929 13.736L205.341 14.366L203.171 16.564ZM202.275 19V9.2H203.311V19H202.275ZM209.317 19L205.089 14.128L205.789 13.372L210.549 19H209.317ZM211.257 19L215.737 9.2H216.759L221.239 19H220.147L216.031 9.802H216.451L212.335 19H211.257ZM213.021 16.382L213.329 15.542H219.027L219.335 16.382H213.021Z" fill="black"/>
<path d="M65.988 55V29.8H76.896C79.152 29.8 81.096 30.172 82.728 30.916C84.36 31.636 85.62 32.68 86.508 34.048C87.396 35.416 87.84 37.048 87.84 38.944C87.84 40.816 87.396 42.436 86.508 43.804C85.62 45.148 84.36 46.18 82.728 46.9C81.096 47.62 79.152 47.98 76.896 47.98H69.228L71.82 45.424V55H65.988ZM82.008 55L75.708 45.856H81.936L88.308 55H82.008ZM71.82 46.072L69.228 43.336H76.572C78.372 43.336 79.716 42.952 80.604 42.184C81.492 41.392 81.936 40.312 81.936 38.944C81.936 37.552 81.492 36.472 80.604 35.704C79.716 34.936 78.372 34.552 76.572 34.552H69.228L71.82 31.78V46.072ZM107.221 55.432C105.229 55.432 103.381 55.108 101.677 54.46C99.9967 53.812 98.5327 52.9 97.2847 51.724C96.0607 50.548 95.1007 49.168 94.4047 47.584C93.7327 46 93.3967 44.272 93.3967 42.4C93.3967 40.528 93.7327 38.8 94.4047 37.216C95.1007 35.632 96.0727 34.252 97.3207 33.076C98.5687 31.9 100.033 30.988 101.713 30.34C103.393 29.692 105.217 29.368 107.185 29.368C109.177 29.368 111.001 29.692 112.657 30.34C114.337 30.988 115.789 31.9 117.013 33.076C118.261 34.252 119.233 35.632 119.929 37.216C120.625 38.776 120.973 40.504 120.973 42.4C120.973 44.272 120.625 46.012 119.929 47.62C119.233 49.204 118.261 50.584 117.013 51.76C115.789 52.912 114.337 53.812 112.657 54.46C111.001 55.108 109.189 55.432 107.221 55.432ZM107.185 50.464C108.313 50.464 109.345 50.272 110.281 49.888C111.241 49.504 112.081 48.952 112.801 48.232C113.521 47.512 114.073 46.66 114.457 45.676C114.865 44.692 115.069 43.6 115.069 42.4C115.069 41.2 114.865 40.108 114.457 39.124C114.073 38.14 113.521 37.288 112.801 36.568C112.105 35.848 111.277 35.296 110.317 34.912C109.357 34.528 108.313 34.336 107.185 34.336C106.057 34.336 105.013 34.528 104.053 34.912C103.117 35.296 102.289 35.848 101.569 36.568C100.849 37.288 100.285 38.14 99.8767 39.124C99.4927 40.108 99.3007 41.2 99.3007 42.4C99.3007 43.576 99.4927 44.668 99.8767 45.676C100.285 46.66 100.837 47.512 101.533 48.232C102.253 48.952 103.093 49.504 104.053 49.888C105.013 50.272 106.057 50.464 107.185 50.464ZM127.876 55V29.8H133.708V50.248H146.344V55H127.876ZM157.486 39.952H169.618V44.488H157.486V39.952ZM157.918 50.32H171.634V55H152.122V29.8H171.166V34.48H157.918V50.32ZM184.015 55V34.552H175.951V29.8H197.911V34.552H189.847V55H184.015ZM203.568 55V29.8H208.392L223.26 47.944H220.92V29.8H226.68V55H221.892L206.988 36.856H209.328V55H203.568ZM235.163 55V29.8H240.995V55H235.163Z" fill="black"/>
<path d="M13.8221 7H55V19H0L13.8221 7Z" fill="#4A494A"/>
<path d="M13.8221 25H55V37H0L13.8221 25Z" fill="#4A494A"/>
<path d="M13.8221 43H55V55H0L13.8221 43Z" fill="#BB8C30"/>
</svg>
